<svg width="456" height="50" viewBox="0 0 456 50" fill="none" xmlns="http://www.w3.org/2000/svg">
<path d="M26.9773 15.0455C26.7652 13.0606 25.8712 11.5152 24.2955 10.4091C22.7349 9.30303 20.7045 8.75 18.2045 8.75C16.447 8.75 14.9394 9.01515 13.6818 9.54546C12.4242 10.0758 11.4621 10.7955 10.7955 11.7045C10.1288 12.6136 9.78788 13.6515 9.77273 14.8182C9.77273 15.7879 9.99242 16.6288 10.4318 17.3409C10.8864 18.053 11.5 18.6591 12.2727 19.1591C13.0455 19.6439 13.9015 20.053 14.8409 20.3864C15.7803 20.7197 16.7273 21 17.6818 21.2273L22.0455 22.3182C23.803 22.7273 25.4924 23.2803 27.1136 23.9773C28.75 24.6742 30.2121 25.553 31.5 26.6136C32.803 27.6742 33.8333 28.9545 34.5909 30.4545C35.3485 31.9545 35.7273 33.7121 35.7273 35.7273C35.7273 38.4545 35.0303 40.8561 33.6364 42.9318C32.2424 44.9924 30.2273 46.6061 27.5909 47.7727C24.9697 48.9242 21.7955 49.5 18.0682 49.5C14.447 49.5 11.303 48.9394 8.63636 47.8182C5.98485 46.697 3.90909 45.0606 2.40909 42.9091C0.924242 40.7576 0.121212 38.1364 0 35.0455H8.29545C8.41667 36.6667 8.91667 38.0152 9.79545 39.0909C10.6742 40.1667 11.8182 40.9697 13.2273 41.5C14.6515 42.0303 16.2424 42.2955 18 42.2955C19.8333 42.2955 21.4394 42.0227 22.8182 41.4773C24.2121 40.9167 25.303 40.1439 26.0909 39.1591C26.8788 38.1591 27.2803 36.9924 27.2955 35.6591C27.2803 34.447 26.9242 33.447 26.2273 32.6591C25.5303 31.8561 24.553 31.1894 23.2955 30.6591C22.053 30.1136 20.5985 29.6288 18.9318 29.2045L13.6364 27.8409C9.80303 26.8561 6.77273 25.3636 4.54545 23.3636C2.33333 21.3485 1.22727 18.6742 1.22727 15.3409C1.22727 12.5985 1.9697 10.197 3.45455 8.13636C4.95455 6.07576 6.99242 4.47727 9.56818 3.34091C12.1439 2.18939 15.0606 1.61364 18.3182 1.61364C21.6212 1.61364 24.5152 2.18939 27 3.34091C29.5 4.47727 31.4621 6.06061 32.8864 8.09091C34.3106 10.1061 35.0455 12.4242 35.0909 15.0455H26.9773Z" fill="white"/>
<path d="M55.8325 13.8864V20.25H35.7643V13.8864H55.8325ZM40.7189 5.52273H48.9461V38.2955C48.9461 39.4015 49.1128 40.25 49.4461 40.8409C49.7946 41.4167 50.2492 41.8106 50.8098 42.0227C51.3704 42.2348 51.9916 42.3409 52.6734 42.3409C53.1886 42.3409 53.6583 42.303 54.0825 42.2273C54.5219 42.1515 54.8552 42.0833 55.0825 42.0227L56.4689 48.4545C56.0295 48.6061 55.4007 48.7727 54.5825 48.9545C53.7795 49.1364 52.7946 49.2424 51.628 49.2727C49.5674 49.3333 47.7113 49.0227 46.0598 48.3409C44.4083 47.6439 43.0977 46.5682 42.128 45.1136C41.1734 43.6591 40.7037 41.8409 40.7189 39.6591V5.52273Z" fill="white"/>
<path d="M73.3127 49.4773C69.8127 49.4773 66.79 48.75 64.2445 47.2955C61.7142 45.8258 59.7673 43.75 58.4036 41.0682C57.04 38.3712 56.3582 35.197 56.3582 31.5455C56.3582 27.9545 57.04 24.803 58.4036 22.0909C59.7824 19.3636 61.7067 17.2424 64.1764 15.7273C66.6461 14.197 69.5476 13.4318 72.8809 13.4318C75.0324 13.4318 77.0627 13.7803 78.9718 14.4773C80.8961 15.1591 82.593 16.2197 84.0627 17.6591C85.5476 19.0985 86.7142 20.9318 87.5627 23.1591C88.4112 25.3712 88.8355 28.0076 88.8355 31.0682V33.5909H60.2218V28.0455H80.9491C80.9339 26.4697 80.593 25.0682 79.9264 23.8409C79.2597 22.5985 78.3279 21.6212 77.1309 20.9091C75.9491 20.197 74.5703 19.8409 72.9945 19.8409C71.3127 19.8409 69.8355 20.25 68.5627 21.0682C67.29 21.8712 66.2976 22.9318 65.5855 24.25C64.8885 25.553 64.5324 26.9848 64.5173 28.5455V33.3864C64.5173 35.4167 64.8885 37.1591 65.6309 38.6136C66.3733 40.053 67.4112 41.1591 68.7445 41.9318C70.0779 42.6894 71.6385 43.0682 73.4264 43.0682C74.6233 43.0682 75.7067 42.9015 76.6764 42.5682C77.6461 42.2197 78.487 41.7121 79.1991 41.0455C79.9112 40.3788 80.4491 39.553 80.8127 38.5682L88.4945 39.4318C88.0097 41.4621 87.0855 43.2348 85.7218 44.75C84.3733 46.25 82.6461 47.4167 80.54 48.25C78.4339 49.0682 76.0249 49.4773 73.3127 49.4773Z" fill="white"/>
<path d="M99.543 2.25V48.7955H91.3157V2.25H99.543Z" fill="white"/>
<path d="M111.75 2.25V48.7955H103.523V2.25H111.75Z" fill="white"/>
<path d="M125.776 49.5C123.564 49.5 121.572 49.1061 119.799 48.3182C118.041 47.5152 116.647 46.3333 115.617 44.7727C114.602 43.2121 114.094 41.2879 114.094 39C114.094 37.0303 114.458 35.4015 115.185 34.1136C115.912 32.8258 116.905 31.7955 118.162 31.0227C119.42 30.25 120.837 29.6667 122.412 29.2727C124.003 28.8636 125.647 28.5682 127.344 28.3864C129.39 28.1742 131.049 27.9848 132.322 27.8182C133.594 27.6364 134.519 27.3636 135.094 27C135.685 26.6212 135.981 26.0379 135.981 25.25V25.1136C135.981 23.4015 135.473 22.0758 134.458 21.1364C133.443 20.197 131.981 19.7273 130.072 19.7273C128.056 19.7273 126.458 20.1667 125.276 21.0455C124.109 21.9242 123.322 22.9621 122.912 24.1591L115.231 23.0682C115.837 20.947 116.837 19.1742 118.231 17.75C119.625 16.3106 121.329 15.2348 123.344 14.5227C125.359 13.7955 127.587 13.4318 130.026 13.4318C131.708 13.4318 133.382 13.6288 135.049 14.0227C136.716 14.4167 138.238 15.0682 139.617 15.9773C140.996 16.8712 142.102 18.0909 142.935 19.6364C143.784 21.1818 144.208 23.1136 144.208 25.4318V48.7955H136.299V44H136.026C135.526 44.9697 134.822 45.8788 133.913 46.7273C133.019 47.5606 131.89 48.2348 130.526 48.75C129.178 49.25 127.594 49.5 125.776 49.5ZM127.912 43.4545C129.564 43.4545 130.996 43.1288 132.208 42.4773C133.42 41.8106 134.352 40.9318 135.003 39.8409C135.67 38.75 136.003 37.5606 136.003 36.2727V32.1591C135.746 32.3712 135.306 32.5682 134.685 32.75C134.079 32.9318 133.397 33.0909 132.64 33.2273C131.882 33.3636 131.132 33.4849 130.39 33.5909C129.647 33.697 129.003 33.7879 128.458 33.8636C127.231 34.0303 126.132 34.303 125.162 34.6818C124.193 35.0606 123.428 35.5909 122.867 36.2727C122.306 36.9394 122.026 37.803 122.026 38.8636C122.026 40.3788 122.579 41.5227 123.685 42.2955C124.791 43.0682 126.2 43.4545 127.912 43.4545Z" fill="white"/>
<path d="M148.001 48.7955V13.8864H155.978V19.7045H156.342C156.978 17.6894 158.069 16.1364 159.614 15.0455C161.175 13.9394 162.955 13.3864 164.955 13.3864C165.41 13.3864 165.917 13.4091 166.478 13.4545C167.054 13.4848 167.531 13.5379 167.91 13.6136V21.1818C167.561 21.0606 167.008 20.9545 166.251 20.8636C165.508 20.7576 164.789 20.7045 164.092 20.7045C162.592 20.7045 161.243 21.0303 160.046 21.6818C158.864 22.3182 157.932 23.2045 157.251 24.3409C156.569 25.4773 156.228 26.7879 156.228 28.2727V48.7955H148.001Z" fill="white"/>
<path d="M184.091 2.25V48.7955H175.659V2.25H184.091Z" fill="white"/>
<path d="M196.605 28.3409V48.7955H188.378V13.8864H196.242V19.8182H196.651C197.454 17.8636 198.734 16.3106 200.492 15.1591C202.265 14.0076 204.454 13.4318 207.06 13.4318C209.469 13.4318 211.568 13.947 213.355 14.9773C215.158 16.0076 216.552 17.5 217.537 19.4545C218.537 21.4091 219.03 23.7803 219.015 26.5682V48.7955H210.787V27.8409C210.787 25.5076 210.181 23.6818 208.969 22.3636C207.772 21.0455 206.113 20.3864 203.992 20.3864C202.552 20.3864 201.272 20.7045 200.151 21.3409C199.045 21.9621 198.174 22.8636 197.537 24.0455C196.916 25.2273 196.605 26.6591 196.605 28.3409Z" fill="white"/>
<path d="M238.125 49.4773C234.641 49.4773 231.648 48.7121 229.148 47.1818C226.663 45.6515 224.747 43.5379 223.398 40.8409C222.065 38.1288 221.398 35.0076 221.398 31.4773C221.398 27.9318 222.08 24.803 223.444 22.0909C224.807 19.3636 226.732 17.2424 229.216 15.7273C231.716 14.197 234.671 13.4318 238.08 13.4318C240.913 13.4318 243.421 13.9545 245.603 15C247.8 16.0303 249.55 17.4924 250.853 19.3864C252.156 21.2652 252.898 23.4621 253.08 25.9773H245.216C244.898 24.2955 244.141 22.8939 242.944 21.7727C241.762 20.6364 240.178 20.0682 238.194 20.0682C236.512 20.0682 235.035 20.5227 233.762 21.4318C232.489 22.3258 231.497 23.6136 230.785 25.2955C230.088 26.9773 229.739 28.9924 229.739 31.3409C229.739 33.7197 230.088 35.7652 230.785 37.4773C231.482 39.1742 232.459 40.4848 233.716 41.4091C234.989 42.3182 236.482 42.7727 238.194 42.7727C239.406 42.7727 240.489 42.5455 241.444 42.0909C242.413 41.6212 243.224 40.947 243.875 40.0682C244.527 39.1894 244.974 38.1212 245.216 36.8636H253.08C252.883 39.3333 252.156 41.5227 250.898 43.4318C249.641 45.3258 247.928 46.8106 245.762 47.8864C243.595 48.947 241.05 49.4773 238.125 49.4773Z" fill="white"/>
<path d="M277.606 34.1136V13.8864H285.833V48.7955H277.856V42.5909H277.492C276.704 44.5455 275.409 46.1439 273.606 47.3864C271.818 48.6288 269.613 49.25 266.992 49.25C264.704 49.25 262.681 48.7424 260.924 47.7273C259.181 46.697 257.818 45.2045 256.833 43.25C255.848 41.2803 255.356 38.9015 255.356 36.1136V13.8864H263.583V34.8409C263.583 37.053 264.189 38.8106 265.401 40.1136C266.613 41.4167 268.204 42.0682 270.174 42.0682C271.386 42.0682 272.56 41.7727 273.697 41.1818C274.833 40.5909 275.765 39.7121 276.492 38.5455C277.234 37.3636 277.606 35.8864 277.606 34.1136Z" fill="white"/>
<path d="M290.177 48.7955V2.25H298.404V19.6591H298.745C299.169 18.8106 299.768 17.9091 300.54 16.9545C301.313 15.9848 302.359 15.1591 303.677 14.4773C304.995 13.7803 306.677 13.4318 308.722 13.4318C311.419 13.4318 313.851 14.1212 316.018 15.5C318.2 16.8636 319.927 18.8864 321.2 21.5682C322.487 24.2348 323.131 27.5076 323.131 31.3864C323.131 35.2197 322.503 38.4773 321.245 41.1591C319.987 43.8409 318.275 45.8864 316.109 47.2955C313.942 48.7045 311.487 49.4091 308.745 49.4091C306.745 49.4091 305.086 49.0758 303.768 48.4091C302.45 47.7424 301.389 46.9394 300.586 46C299.798 45.0455 299.184 44.1439 298.745 43.2955H298.268V48.7955H290.177ZM298.245 31.3409C298.245 33.5985 298.563 35.5758 299.2 37.2727C299.851 38.9697 300.783 40.2955 301.995 41.25C303.222 42.1894 304.707 42.6591 306.45 42.6591C308.268 42.6591 309.79 42.1742 311.018 41.2045C312.245 40.2197 313.169 38.8788 313.79 37.1818C314.427 35.4697 314.745 33.5227 314.745 31.3409C314.745 29.1742 314.434 27.25 313.813 25.5682C313.192 23.8864 312.268 22.5682 311.04 21.6136C309.813 20.6591 308.283 20.1818 306.45 20.1818C304.692 20.1818 303.2 20.6439 301.972 21.5682C300.745 22.4924 299.813 23.7879 299.177 25.4545C298.556 27.1212 298.245 29.0833 298.245 31.3409Z" fill="white"/>
<path d="M335.691 49.5C333.479 49.5 331.487 49.1061 329.714 48.3182C327.956 47.5152 326.562 46.3333 325.532 44.7727C324.517 43.2121 324.009 41.2879 324.009 39C324.009 37.0303 324.373 35.4015 325.1 34.1136C325.828 32.8258 326.82 31.7955 328.078 31.0227C329.335 30.25 330.752 29.6667 332.328 29.2727C333.918 28.8636 335.562 28.5682 337.259 28.3864C339.305 28.1742 340.964 27.9848 342.237 27.8182C343.509 27.6364 344.434 27.3636 345.009 27C345.6 26.6212 345.896 26.0379 345.896 25.25V25.1136C345.896 23.4015 345.388 22.0758 344.373 21.1364C343.358 20.197 341.896 19.7273 339.987 19.7273C337.971 19.7273 336.373 20.1667 335.191 21.0455C334.024 21.9242 333.237 22.9621 332.828 24.1591L325.146 23.0682C325.752 20.947 326.752 19.1742 328.146 17.75C329.54 16.3106 331.244 15.2348 333.259 14.5227C335.274 13.7955 337.502 13.4318 339.941 13.4318C341.623 13.4318 343.297 13.6288 344.964 14.0227C346.631 14.4167 348.153 15.0682 349.532 15.9773C350.911 16.8712 352.017 18.0909 352.85 19.6364C353.699 21.1818 354.123 23.1136 354.123 25.4318V48.7955H346.214V44H345.941C345.441 44.9697 344.737 45.8788 343.828 46.7273C342.934 47.5606 341.805 48.2348 340.441 48.75C339.093 49.25 337.509 49.5 335.691 49.5ZM337.828 43.4545C339.479 43.4545 340.911 43.1288 342.123 42.4773C343.335 41.8106 344.267 40.9318 344.918 39.8409C345.585 38.75 345.918 37.5606 345.918 36.2727V32.1591C345.661 32.3712 345.221 32.5682 344.6 32.75C343.994 32.9318 343.312 33.0909 342.555 33.2273C341.797 33.3636 341.047 33.4849 340.305 33.5909C339.562 33.697 338.918 33.7879 338.373 33.8636C337.146 34.0303 336.047 34.303 335.078 34.6818C334.108 35.0606 333.343 35.5909 332.782 36.2727C332.221 36.9394 331.941 37.803 331.941 38.8636C331.941 40.3788 332.494 41.5227 333.6 42.2955C334.706 43.0682 336.115 43.4545 337.828 43.4545Z" fill="white"/>
<path d="M375.348 13.8864V20.25H355.279V13.8864H375.348ZM360.234 5.52273H368.461V38.2955C368.461 39.4015 368.628 40.25 368.961 40.8409C369.31 41.4167 369.764 41.8106 370.325 42.0227C370.885 42.2348 371.507 42.3409 372.188 42.3409C372.704 42.3409 373.173 42.303 373.598 42.2273C374.037 42.1515 374.37 42.0833 374.598 42.0227L375.984 48.4545C375.544 48.6061 374.916 48.7727 374.098 48.9545C373.294 49.1364 372.31 49.2424 371.143 49.2727C369.082 49.3333 367.226 49.0227 365.575 48.3409C363.923 47.6439 362.613 46.5682 361.643 45.1136C360.688 43.6591 360.219 41.8409 360.234 39.6591V5.52273Z" fill="white"/>
<path d="M377.748 48.7955V13.8864H385.975V48.7955H377.748ZM381.885 8.93182C380.582 8.93182 379.46 8.5 378.521 7.63636C377.582 6.75757 377.112 5.70454 377.112 4.47727C377.112 3.23485 377.582 2.18182 378.521 1.31818C379.46 0.439393 380.582 0 381.885 0C383.203 0 384.324 0.439393 385.248 1.31818C386.188 2.18182 386.657 3.23485 386.657 4.47727C386.657 5.70454 386.188 6.75757 385.248 7.63636C384.324 8.5 383.203 8.93182 381.885 8.93182Z" fill="white"/>
<path d="M405.183 49.4773C401.774 49.4773 398.819 48.7273 396.319 47.2273C393.819 45.7273 391.88 43.6288 390.501 40.9318C389.138 38.2349 388.456 35.0833 388.456 31.4773C388.456 27.8712 389.138 24.7121 390.501 22C391.88 19.2879 393.819 17.1818 396.319 15.6818C398.819 14.1818 401.774 13.4318 405.183 13.4318C408.592 13.4318 411.547 14.1818 414.047 15.6818C416.547 17.1818 418.478 19.2879 419.842 22C421.221 24.7121 421.91 27.8712 421.91 31.4773C421.91 35.0833 421.221 38.2349 419.842 40.9318C418.478 43.6288 416.547 45.7273 414.047 47.2273C411.547 48.7273 408.592 49.4773 405.183 49.4773ZM405.228 42.8864C407.077 42.8864 408.622 42.3788 409.865 41.3636C411.107 40.3333 412.031 38.9545 412.638 37.2273C413.259 35.5 413.569 33.5758 413.569 31.4545C413.569 29.3182 413.259 27.3864 412.638 25.6591C412.031 23.9167 411.107 22.5303 409.865 21.5C408.622 20.4697 407.077 19.9545 405.228 19.9545C403.334 19.9545 401.759 20.4697 400.501 21.5C399.259 22.5303 398.327 23.9167 397.706 25.6591C397.1 27.3864 396.797 29.3182 396.797 31.4545C396.797 33.5758 397.1 35.5 397.706 37.2273C398.327 38.9545 399.259 40.3333 400.501 41.3636C401.759 42.3788 403.334 42.8864 405.228 42.8864Z" fill="white"/>
<path d="M432.64 28.3409V48.7955H424.413V13.8864H432.277V19.8182H432.686C433.489 17.8636 434.769 16.3106 436.527 15.1591C438.3 14.0076 440.489 13.4318 443.095 13.4318C445.504 13.4318 447.603 13.947 449.39 14.9773C451.193 16.0076 452.587 17.5 453.572 19.4545C454.572 21.4091 455.065 23.7803 455.05 26.5682V48.7955H446.822V27.8409C446.822 25.5076 446.216 23.6818 445.004 22.3636C443.807 21.0455 442.148 20.3864 440.027 20.3864C438.587 20.3864 437.307 20.7045 436.186 21.3409C435.08 21.9621 434.209 22.8636 433.572 24.0455C432.951 25.2273 432.64 26.6591 432.64 28.3409Z" fill="white"/>
</svg>
