<svg width="256" height="48" viewBox="0 0 256 48" fill="none" xmlns="http://www.w3.org/2000/svg">
<path d="M26.9773 13.4318C26.7652 11.447 25.8712 9.90152 24.2955 8.79546C22.7349 7.68939 20.7045 7.13636 18.2045 7.13636C16.447 7.13636 14.9394 7.40152 13.6818 7.93182C12.4242 8.46212 11.4621 9.18182 10.7955 10.0909C10.1288 11 9.78788 12.0379 9.77273 13.2045C9.77273 14.1742 9.99242 15.0152 10.4318 15.7273C10.8864 16.4394 11.5 17.0455 12.2727 17.5455C13.0455 18.0303 13.9015 18.4394 14.8409 18.7727C15.7803 19.1061 16.7273 19.3864 17.6818 19.6136L22.0455 20.7045C23.803 21.1136 25.4924 21.6667 27.1136 22.3636C28.75 23.0606 30.2121 23.9394 31.5 25C32.803 26.0606 33.8333 27.3409 34.5909 28.8409C35.3485 30.3409 35.7273 32.0985 35.7273 34.1136C35.7273 36.8409 35.0303 39.2424 33.6364 41.3182C32.2424 43.3788 30.2273 44.9924 27.5909 46.1591C24.9697 47.3106 21.7955 47.8864 18.0682 47.8864C14.447 47.8864 11.303 47.3258 8.63636 46.2045C5.98485 45.0833 3.90909 43.447 2.40909 41.2955C0.924242 39.1439 0.121212 36.5227 0 33.4318H8.29545C8.41667 35.053 8.91667 36.4015 9.79545 37.4773C10.6742 38.553 11.8182 39.3561 13.2273 39.8864C14.6515 40.4167 16.2424 40.6818 18 40.6818C19.8333 40.6818 21.4394 40.4091 22.8182 39.8636C24.2121 39.303 25.303 38.5303 26.0909 37.5455C26.8788 36.5455 27.2803 35.3788 27.2955 34.0455C27.2803 32.8333 26.9242 31.8333 26.2273 31.0455C25.5303 30.2424 24.553 29.5758 23.2955 29.0455C22.053 28.5 20.5985 28.0152 18.9318 27.5909L13.6364 26.2273C9.80303 25.2424 6.77273 23.75 4.54545 21.75C2.33333 19.7348 1.22727 17.0606 1.22727 13.7273C1.22727 10.9848 1.9697 8.58333 3.45455 6.52273C4.95455 4.46212 6.99242 2.86364 9.56818 1.72727C12.1439 0.575757 15.0606 0 18.3182 0C21.6212 0 24.5152 0.575757 27 1.72727C29.5 2.86364 31.4621 4.44697 32.8864 6.47727C34.3106 8.49242 35.0455 10.8106 35.0909 13.4318H26.9773Z" fill="#0F172A"/>
<path d="M55.8325 12.2727V18.6364H35.7643V12.2727H55.8325ZM40.7189 3.90909H48.9461V36.6818C48.9461 37.7879 49.1128 38.6364 49.4461 39.2273C49.7946 39.803 50.2492 40.197 50.8098 40.4091C51.3704 40.6212 51.9916 40.7273 52.6734 40.7273C53.1886 40.7273 53.6583 40.6894 54.0825 40.6136C54.5219 40.5379 54.8552 40.4697 55.0825 40.4091L56.4689 46.8409C56.0295 46.9924 55.4007 47.1591 54.5825 47.3409C53.7795 47.5227 52.7946 47.6288 51.628 47.6591C49.5674 47.7197 47.7113 47.4091 46.0598 46.7273C44.4083 46.0303 43.0977 44.9545 42.128 43.5C41.1734 42.0455 40.7037 40.2273 40.7189 38.0455V3.90909Z" fill="#0F172A"/>
<path d="M73.3127 47.8636C69.8127 47.8636 66.79 47.1364 64.2445 45.6818C61.7142 44.2121 59.7673 42.1364 58.4036 39.4545C57.04 36.7576 56.3582 33.5833 56.3582 29.9318C56.3582 26.3409 57.04 23.1894 58.4036 20.4773C59.7824 17.75 61.7067 15.6288 64.1764 14.1136C66.6461 12.5833 69.5476 11.8182 72.8809 11.8182C75.0324 11.8182 77.0627 12.1667 78.9718 12.8636C80.8961 13.5455 82.593 14.6061 84.0627 16.0455C85.5476 17.4848 86.7142 19.3182 87.5627 21.5455C88.4112 23.7576 88.8355 26.3939 88.8355 29.4545V31.9773H60.2218V26.4318H80.9491C80.9339 24.8561 80.593 23.4545 79.9264 22.2273C79.2597 20.9848 78.3279 20.0076 77.1309 19.2955C75.9491 18.5833 74.5703 18.2273 72.9945 18.2273C71.3127 18.2273 69.8355 18.6364 68.5627 19.4545C67.29 20.2576 66.2976 21.3182 65.5855 22.6364C64.8885 23.9394 64.5324 25.3712 64.5173 26.9318V31.7727C64.5173 33.803 64.8885 35.5455 65.6309 37C66.3733 38.4394 67.4112 39.5455 68.7445 40.3182C70.0779 41.0758 71.6385 41.4545 73.4264 41.4545C74.6233 41.4545 75.7067 41.2879 76.6764 40.9545C77.6461 40.6061 78.487 40.0985 79.1991 39.4318C79.9112 38.7652 80.4491 37.9394 80.8127 36.9545L88.4945 37.8182C88.0097 39.8485 87.0855 41.6212 85.7218 43.1364C84.3733 44.6364 82.6461 45.803 80.54 46.6364C78.4339 47.4545 76.0249 47.8636 73.3127 47.8636Z" fill="#0F172A"/>
<path d="M99.543 0.636364V47.1818H91.3157V0.636364H99.543Z" fill="#0F172A"/>
<path d="M111.75 0.636364V47.1818H103.523V0.636364H111.75Z" fill="#0F172A"/>
<path d="M125.776 47.8864C123.564 47.8864 121.572 47.4924 119.799 46.7045C118.041 45.9015 116.647 44.7197 115.617 43.1591C114.602 41.5985 114.094 39.6742 114.094 37.3864C114.094 35.4167 114.458 33.7879 115.185 32.5C115.912 31.2121 116.905 30.1818 118.162 29.4091C119.42 28.6364 120.837 28.053 122.412 27.6591C124.003 27.25 125.647 26.9545 127.344 26.7727C129.39 26.5606 131.049 26.3712 132.322 26.2045C133.594 26.0227 134.519 25.75 135.094 25.3864C135.685 25.0076 135.981 24.4242 135.981 23.6364V23.5C135.981 21.7879 135.473 20.4621 134.458 19.5227C133.443 18.5833 131.981 18.1136 130.072 18.1136C128.056 18.1136 126.458 18.553 125.276 19.4318C124.109 20.3106 123.322 21.3485 122.912 22.5455L115.231 21.4545C115.837 19.3333 116.837 17.5606 118.231 16.1364C119.625 14.697 121.329 13.6212 123.344 12.9091C125.359 12.1818 127.587 11.8182 130.026 11.8182C131.708 11.8182 133.382 12.0152 135.049 12.4091C136.716 12.803 138.238 13.4545 139.617 14.3636C140.996 15.2576 142.102 16.4773 142.935 18.0227C143.784 19.5682 144.208 21.5 144.208 23.8182V47.1818H136.299V42.3864H136.026C135.526 43.3561 134.822 44.2652 133.913 45.1136C133.019 45.947 131.89 46.6212 130.526 47.1364C129.178 47.6364 127.594 47.8864 125.776 47.8864ZM127.912 41.8409C129.564 41.8409 130.996 41.5152 132.208 40.8636C133.42 40.197 134.352 39.3182 135.003 38.2273C135.67 37.1364 136.003 35.947 136.003 34.6591V30.5455C135.746 30.7576 135.306 30.9545 134.685 31.1364C134.079 31.3182 133.397 31.4773 132.64 31.6136C131.882 31.75 131.132 31.8712 130.39 31.9773C129.647 32.0833 129.003 32.1742 128.458 32.25C127.231 32.4167 126.132 32.6894 125.162 33.0682C124.193 33.447 123.428 33.9773 122.867 34.6591C122.306 35.3258 122.026 36.1894 122.026 37.25C122.026 38.7652 122.579 39.9091 123.685 40.6818C124.791 41.4545 126.2 41.8409 127.912 41.8409Z" fill="#0F172A"/>
<path d="M148.001 47.1818V12.2727H155.978V18.0909H156.342C156.978 16.0758 158.069 14.5227 159.614 13.4318C161.175 12.3258 162.955 11.7727 164.955 11.7727C165.41 11.7727 165.917 11.7955 166.478 11.8409C167.054 11.8712 167.531 11.9242 167.91 12V19.5682C167.561 19.447 167.008 19.3409 166.251 19.25C165.508 19.1439 164.789 19.0909 164.092 19.0909C162.592 19.0909 161.243 19.4167 160.046 20.0682C158.864 20.7045 157.932 21.5909 157.251 22.7273C156.569 23.8636 156.228 25.1742 156.228 26.6591V47.1818H148.001Z" fill="#0F172A"/>
<path d="M179.074 47.1818H170.074L186.46 0.636364H196.87L213.279 47.1818H204.279L191.847 10.1818H191.483L179.074 47.1818ZM179.37 28.9318H203.915V35.7045H179.37V28.9318Z" fill="#0F172A"/>
<path d="M223.361 0.636364V47.1818H214.929V0.636364H223.361Z" fill="#0F172A"/>
<path d="M227.194 47.1818V41.9545L245.194 19.3864V19.0909H227.785V12.2727H255.262V17.8864L238.125 40.0682V40.3636H255.853V47.1818H227.194Z" fill="#0F172A"/>
</svg>
